<?xml version="1.0" encoding="utf-8"?>
<!-- Generator: Adobe Illustrator 22.0.0, SVG Export Plug-In . SVG Version: 6.00 Build 0)  -->
<svg version="1.1" xmlns="http://www.w3.org/2000/svg" xmlns:xlink="http://www.w3.org/1999/xlink" x="0px" y="0px"
	 viewBox="0 0 560 560" style="enable-background:new 0 0 560 560;" xml:space="preserve">
<style type="text/css">
	.st0{display:none;opacity:0.25;}
	.st1{display:inline;}
	.st2{fill:#D0D3D6;}
	.st3{fill:#CC0033;}
	.st4{fill:#132749;}
	.st5{fill:#E6E6E6;}
</style>
<g id="boceto" class="st0">
	<g class="st1">
		<g>
			<path d="M140.6,99.6c0,21.6,1.8,43.2,1.8,64.8c0,22.1-2.2,44.2-2.4,66.4c-0.1,21.9,0.7,43.9,1.6,65.8c0.9,21.5-0.9,42.7-2.3,64.1
				c-1.6,24.6-0.5,49.2-0.4,73.8c0,1.9,3,1.9,3,0c0-21.7-1-43.5,0-65.2c1-21.3,3.9-42.6,3.2-64c-0.7-21.9-1.8-43.8-2-65.8
				c-0.1-22.1,1.7-44.1,2.2-66.2c0.6-24.6-1.6-49.2-1.7-73.7C143.6,97.6,140.6,97.6,140.6,99.6L140.6,99.6z"/>
		</g>
	</g>
	<g class="st1">
		<g>
			<path d="M142.3,98.6c14.7,2.7,29.7-1.7,44.2-3.3c18-2.1,36.3-0.9,54.3,0.7c37.5,3.4,74.9,8,112.6,8.6c20.6,0.3,41.5,0.5,62.1-0.6
				c1.9-0.1,1.9-3.1,0-3c-36.1,1.8-72.8,1-108.8-1.8c-36.5-2.9-73.6-9.6-110.3-7.7c-17.5,0.9-35.8,7.4-53.2,4.2
				C141.2,95.4,140.4,98.3,142.3,98.6L142.3,98.6z"/>
		</g>
	</g>
	<g class="st1">
		<g>
			<path d="M419.8,99.4c-0.1-0.3-0.3-0.6-0.5-0.9c-0.8-1.4-2.7-0.6-2.8,0.8c-0.1,1.4,0.6,3,0.9,4.4c0.5,2.7,0.6,5.5,0.7,8.2
				c0,5.4-0.6,10.8-1.4,16.2c-1.3,9.5-2.7,18.8-2.7,28.4c0,23.5-0.2,47.1-0.8,70.6c-1.2,47.7-4.1,95.3-4.9,143
				c-0.2,12.9-0.1,25.9-0.4,38.8c-0.3,13.1-0.7,26.2,0.8,39.3c0.2,1.9,3.2,1.9,3,0c-2.6-22.4-0.8-45.6-0.5-68.1
				c0.3-23.9,1.1-47.8,2.1-71.6c1.9-47.4,3.6-94.7,3.8-142.1c0-12.2,0.6-23.7,2.3-35.8c0.8-5.4,1.5-10.8,1.7-16.2
				c0.1-2.7,0-5.3-0.2-8c-0.2-2.2-1.4-4.9-1.3-7c-0.9,0.3-1.9,0.5-2.8,0.8c0.2,0.3,0.3,0.6,0.5,0.9
				C417.9,102.7,420.5,101.2,419.8,99.4L419.8,99.4z"/>
		</g>
	</g>
	<g class="st1">
		<g>
			<path d="M141.7,436.5c5.6,1.3,11.6,0.5,17.2-0.1c7.1-0.7,14.1-1.5,21.3-1.8c20.5-0.9,41-1.5,61.5-2c40.4-1.1,80.6,1.8,120.7,6.4
				c10.4,1.2,20.8,2.5,31.2,3.8c9.2,1.2,18.6,2,27.7-0.3c1.9-0.5,1.1-3.4-0.8-2.9c-8.3,2.1-16.9,1.4-25.3,0.4c-9-1.1-18-2.3-27-3.4
				c-19.7-2.3-39.4-4.3-59.2-5.6c-39.4-2.6-78.7-1.4-118.1,0.1c-8.9,0.3-17.7,0.7-26.5,1.7c-6.9,0.8-14.9,2.5-21.8,0.8
				C140.7,433.2,139.8,436.1,141.7,436.5L141.7,436.5z"/>
		</g>
	</g>
	<g class="st1">
		<g>
			<path d="M140.2,388.8c3.2-4,3.8-9.9,5.6-14.5c2.9-7.5,7.6-12.5,15.4-15c19.5-6.3,40.4-5.3,60.6-6.1c40.7-1.7,81.2,1.6,121.9,2.2
				c22.6,0.3,45,4.5,67.6,4.2c1.9,0,1.9-3,0-3c-20.7,0.3-41.1-4-61.7-4.1c-21.4-0.2-42.7-1.3-64-2.1c-21-0.8-41.9-1.1-62.9-0.2
				c-19.9,0.9-40.2,0-59.6,5.4c-6.9,1.9-12.8,4.7-16.7,10.8c-1.8,2.9-3.2,6-4.3,9.2c-1.1,3.4-1.8,8.2-4.1,11
				C136.9,388.2,139,390.3,140.2,388.8L140.2,388.8z"/>
		</g>
	</g>
	<g class="st1">
		<g>
			<path d="M409,383.9c-14.9-0.2-29.4-2.9-44.4-2.4c-15.4,0.5-30.7,1.8-46.1,1.3c-14.9-0.5-29.7-1.9-44.6-2.9
				c-15.2-1-29.7-0.2-44.8,1c-1.9,0.1-1.9,3.1,0,3c14.8-1.1,29-2.1,43.9-1.1c15.2,1,30.3,2.4,45.6,2.9c15.1,0.5,30-0.8,45.1-1.3
				c15.3-0.5,30.1,2.2,45.4,2.4C410.9,386.9,410.9,383.9,409,383.9L409,383.9z"/>
		</g>
	</g>
	<g class="st1">
		<g>
			<path d="M246.5,382.4c-0.1,6.3,0.7,12.6,1,18.9c0.3,6.5,0.1,13,0.1,19.5c0,12.6,0.1,25.1-0.3,37.7c-0.4,11.6-0.3,23-0.1,34.6
				c0.2,9.3-0.1,19.3,3.4,28.1c0.5,1.2,2,1.5,2.7,0.4C262,508,266,492.1,270.7,477c-0.6,0.3-1.2,0.7-1.8,1
				c5.7,1.5,9.2,9.4,11.7,14.2c2.3,4.6,4.5,9.4,6.2,14.2c1.4,4,2.5,8,4,11.9c1.1,2.7,2.5,6.9,5.4,8.3c9,4.3,9.3-20.2,9.2-23.9
				c-0.1-8.6-0.7-17.2-0.3-25.8c0.4-9.6,0.7-19.3,1.3-28.9c0.6-10.9,1.6-21.8,2.8-32.6c0.7-5.5,1.6-11.1,1.7-16.7
				c0.1-4.9-1-9.9,0.2-14.7c0.4-1.9-2.5-2.7-2.9-0.8c-1.6,6.7,0,13.9-0.7,20.8c-0.9,9.2-2.2,18.4-3,27.6c-1.5,17.8-2.8,36-2.6,53.8
				c0.1,7.7,0.9,15.5,0.5,23.2c-0.2,4-0.7,8.1-2.1,11.9c-0.8,2-1.5,4.5-3.6,2.6c-2.9-2.6-4.1-8.5-5.3-12.1c-1-3.2-2-6.3-3.3-9.4
				c-2.3-5.6-4.8-11.3-8-16.5c-2.4-4-5.6-8.8-10.4-10c-0.8-0.2-1.6,0.3-1.8,1c-4.6,14.9-8.5,30.5-17,43.8c0.9,0.1,1.8,0.2,2.7,0.4
				c-3.6-9-3.2-19.2-3.4-28.7c-0.3-11.7-0.2-23.3,0.2-35c0.4-12.3,0.3-24.5,0.3-36.8c0-6.2,0.2-12.4-0.1-18.5
				c-0.3-6.3-1.2-12.6-1-18.9C249.6,380.5,246.6,380.5,246.5,382.4L246.5,382.4z"/>
		</g>
	</g>
	<g class="st1">
		<g>
			<path d="M208.9,250.9c4.3-4.4,8.1-9.3,12.4-13.7c5.6-5.7,12.2-10.5,19-14.6c13.8-8.3,30.4-11.8,46.3-13.4
				c15.7-1.6,32-0.4,46.6,5.9c15.5,6.7,27.3,18.8,36.6,32.6c1.1,1.6,3.7,0.1,2.6-1.5c-9.3-13.7-21-25.9-36.2-33
				c-15-6.9-31.7-8.6-48-7.2c-16.4,1.4-33.6,4.9-48,13.1c-6.9,4-13.8,8.8-19.6,14.4c-4.9,4.8-9.1,10.3-13.9,15.2
				C205.4,250.2,207.5,252.3,208.9,250.9L208.9,250.9z"/>
		</g>
	</g>
	<g class="st1">
		<g>
			<path d="M369.6,246.3c0.3,4.7-13.4,8-16.4,8.9c-8.2,2.6-16.6,4.5-24.9,6.3c-8.3,1.8-16.6,3.6-25,4.9c-16.7,2.5-32.4,1.2-48.6-3.4
				c-8.2-2.4-16.4-4.7-24.7-6.8c-8.2-2.2-16.1-5-22.3-10.9c-1.4-1.3-3.5,0.8-2.1,2.1c11,10.5,27.2,12.3,41.2,16.4
				c16.9,5,32.8,8.3,50.4,6.4c10.4-1.1,20.7-3.4,31-5.6c9.5-2,19-4.2,28.2-7.3c4.4-1.5,16.6-4.6,16.2-11
				C372.5,244.4,369.5,244.4,369.6,246.3L369.6,246.3z"/>
		</g>
	</g>
	<g class="st1">
		<g>
			<path d="M271.3,208.2c-13.5,3.3-20.6,20.2-20,33c0.7,15.2,12.7,27.4,28.1,26.8c1.9-0.1,1.9-3.1,0-3c-14.3,0.6-25-11-25.1-25
				c-0.1-11.2,6-26,17.8-28.9C274,210.6,273.2,207.7,271.3,208.2L271.3,208.2z"/>
		</g>
	</g>
	<g class="st1">
		<g>
			<path d="M327.1,212.3c6.7-1.2,8.7,19.5,8.8,23.5c0.2,13.2-11.5,26.5-23.8,29.8c-1.9,0.5-1.1,3.4,0.8,2.9
				c14.1-3.8,26.9-19.1,25.9-34.2c-0.4-6.3-2.5-26.7-12.5-24.9C324.5,209.7,325.3,212.6,327.1,212.3L327.1,212.3z"/>
		</g>
	</g>
	<g class="st1">
		<g>
			<path d="M218.3,163c5.4,10.1,14.1,17.8,22.1,25.7c1.4,1.4,3.5-0.8,2.1-2.1c-7.8-7.8-16.4-15.3-21.7-25.1
				C220,159.8,217.4,161.3,218.3,163L218.3,163z"/>
		</g>
	</g>
	<g class="st1">
		<g>
			<path d="M293.7,156.3c2.4,1.9,1.6,10,1.7,12.8c0.2,4.2,0.2,8.5,0.8,12.6c0.3,1.9,3.2,1.1,2.9-0.8c-0.8-5.4-0.6-10.9-1-16.3
				c-0.2-2.8,0.1-8.3-2.4-10.4C294.4,152.9,292.2,155,293.7,156.3L293.7,156.3z"/>
		</g>
	</g>
	<g class="st1">
		<g>
			<path d="M365.5,164.3c-1.9,9.3-9.9,15.5-14.6,23.3c-1,1.6,1.6,3.2,2.6,1.5c4.9-8,13-14.4,14.9-24
				C368.8,163.2,365.9,162.4,365.5,164.3L365.5,164.3z"/>
		</g>
	</g>
</g>
<g id="color">
	<path class="st2" d="M325,430h91.8c7.3,0,13.2-5.9,13.2-13.2v-46H325.5L325,430z"/>
	<path class="st3" d="M255.8,251.9c0,16.8,14.2,30.4,31.7,30.4c17.5,0,31.7-13.7,31.7-30.4s-14.2-30.4-31.7-30.4
		C270.1,221.5,255.8,235.1,255.8,251.9z"/>
	<path class="st2" d="M144.7,384.3v32.6c0,7.3,5.9,13.2,13.1,13.2h93.3c0-21.2,0-42.9,0.1-59.2H216c-0.8,0-1.5-0.7-1.5-1.5
		s0.7-1.5,1.5-1.5h35.3l0,0h74.2l0,0H430v-15.4c-23.5,0-244.4,0.4-258.8,2.3C162.7,355.9,147.8,370.2,144.7,384.3z"/>
	<path class="st3" d="M254.3,500.3l33.7-35l33.5,35l1-129.4h-68.2C254,410.6,254.2,483.1,254.3,500.3z"/>
	<path class="st4" d="M416.8,99.2h-259c-7.3,0-13.1,5.9-13.1,13.1v263.2c6-12.2,18.3-22.7,26.1-23.7c14.8-2,234.2-2.3,259.2-2.3
		V112.4C430,105.1,424.1,99.2,416.8,99.2z M286.6,146.9c0-0.8,0.7-1.5,1.5-1.5c0,0,0,0,0,0c0.8,0,1.5,0.7,1.5,1.5l-0.1,50.4
		c0,0.8-0.7,1.5-1.5,1.5c0,0,0,0,0,0c-0.8,0-1.5-0.7-1.5-1.5L286.6,146.9z M197.5,161.2c0.6-0.6,1.5-0.5,2.1,0l35,36.2
		c0.6,0.6,0.5,1.5,0,2.1c-0.3,0.3-0.7,0.4-1,0.4c-0.4,0-0.8-0.1-1.1-0.4l-35-36.2C196.9,162.7,196.9,161.8,197.5,161.2z
		 M360.2,252.1c-1.7,1.5-40.8,37.4-72.5,37.4c-0.1,0-0.1,0-0.2,0c-30.8-0.1-71.3-35.9-73-37.4l-1.3-1.1l1.2-1.1
		c1.6-1.5,40.3-35.9,73.7-35.9c34.7,0,70.5,34.4,72,35.9l1.1,1.1L360.2,252.1z M378.6,163.3l-35,36.2c-0.3,0.3-0.7,0.4-1.1,0.4
		c-0.4,0-0.7-0.1-1-0.4c-0.6-0.6-0.6-1.5,0-2.1l35-36.2c0.6-0.6,1.5-0.6,2.1,0C379.1,161.8,379.1,162.7,378.6,163.3z"/>
	<path class="st5" d="M217.9,251c7.2,6.1,43,35.4,69.7,35.5c0,0,0.1,0,0.1,0c27.5,0,62.3-29.5,69.2-35.5c-6.5-5.9-38.6-34-68.7-34
		C259.4,217,224.9,245,217.9,251z M322.2,251.9c0,18.4-15.6,33.4-34.7,33.4s-34.7-15-34.7-33.4s15.6-33.4,34.7-33.4
		S322.2,233.5,322.2,251.9z"/>
	<path d="M288.2,214c-33.3,0-72,34.4-73.7,35.9l-1.2,1.1l1.3,1.1c1.7,1.5,42.2,37.3,73,37.4c0.1,0,0.1,0,0.2,0
		c31.6,0,70.8-35.9,72.5-37.4l1.2-1.1l-1.1-1.1C358.7,248.5,323,214,288.2,214z M287.7,286.5c0,0-0.1,0-0.1,0
		c-26.7-0.1-62.5-29.4-69.7-35.5c7-6,41.5-34,70.4-34c30.1,0,62.2,28,68.7,34C350.1,257,315.2,286.5,287.7,286.5z"/>
	<path d="M252.9,251.9c0,18.4,15.6,33.4,34.7,33.4s34.7-15,34.7-33.4s-15.6-33.4-34.7-33.4S252.9,233.5,252.9,251.9z M319.3,251.9
		c0,16.8-14.2,30.4-31.7,30.4c-17.5,0-31.7-13.7-31.7-30.4s14.2-30.4,31.7-30.4C305,221.5,319.3,235.1,319.3,251.9z"/>
	<path d="M376.4,161.3l-35,36.2c-0.6,0.6-0.5,1.5,0,2.1c0.3,0.3,0.7,0.4,1,0.4c0.4,0,0.8-0.1,1.1-0.4l35-36.2c0.6-0.6,0.5-1.5,0-2.1
		C377.9,160.7,377,160.7,376.4,161.3z"/>
	<path d="M233.5,200c0.4,0,0.7-0.1,1-0.4c0.6-0.6,0.6-1.5,0-2.1l-35-36.2c-0.6-0.6-1.5-0.6-2.1,0c-0.6,0.6-0.6,1.5,0,2.1l35,36.2
		C232.7,199.8,233.1,200,233.5,200z"/>
	<path d="M287.9,198.7C287.9,198.7,287.9,198.7,287.9,198.7c0.8,0,1.5-0.7,1.5-1.5l0.1-50.4c0-0.8-0.7-1.5-1.5-1.5c0,0,0,0,0,0
		c-0.8,0-1.5,0.7-1.5,1.5l-0.1,50.4C286.5,198.1,287.1,198.7,287.9,198.7z"/>
	<path d="M416.8,95.2h-259c-9.5,0-17.1,7.7-17.1,17.1v304.5c0,9.5,7.7,17.2,17.1,17.2h93.3c0,36.1,0.1,69.5,0.1,70l0,3.7l36.7-38
		l36.5,38L325,434h91.8c9.5,0,17.2-7.7,17.2-17.2V112.4C434,102.9,426.3,95.2,416.8,95.2z M321.5,500.3l-33.5-35l-33.7,35
		c0-17.2-0.2-89.7,0-129.4h68.2L321.5,500.3z M430,416.8c0,7.3-5.9,13.2-13.2,13.2H325l0.4-59.2H430V416.8z M430,367.9H325.5l0,0
		h-74.2l0,0H216c-0.8,0-1.5,0.7-1.5,1.5s0.7,1.5,1.5,1.5h35.3c-0.1,16.2-0.1,38-0.1,59.2h-93.3c-7.3,0-13.1-5.9-13.1-13.2v-32.6
		c3.1-14,18-28.3,26.5-29.5c14.4-1.9,235.3-2.3,258.8-2.3V367.9z M430,349.6c-25,0-244.4,0.4-259.2,2.3c-7.8,1-20.1,11.5-26.1,23.7
		V112.4c0-7.3,5.9-13.1,13.1-13.1h259c7.3,0,13.2,5.9,13.2,13.1V349.6z"/>
</g>
<g id="trazado">
	<g>
		<path d="M288.2,214c-33.3,0-72,34.4-73.7,35.9l-1.2,1.1l1.3,1.1c1.7,1.5,42.2,37.3,73,37.4c0.1,0,0.1,0,0.2,0
			c31.6,0,70.8-35.9,72.5-37.4l1.2-1.1l-1.1-1.1C358.7,248.5,323,214,288.2,214z M287.7,286.5c0,0-0.1,0-0.1,0
			c-26.7-0.1-62.5-29.4-69.7-35.5c7-6,41.5-34,70.4-34c30.1,0,62.2,28,68.7,34C350.1,257,315.2,286.5,287.7,286.5z"/>
		<path d="M252.9,251.9c0,18.4,15.6,33.4,34.7,33.4s34.7-15,34.7-33.4s-15.6-33.4-34.7-33.4S252.9,233.5,252.9,251.9z M319.3,251.9
			c0,16.8-14.2,30.4-31.7,30.4c-17.5,0-31.7-13.7-31.7-30.4s14.2-30.4,31.7-30.4C305,221.5,319.3,235.1,319.3,251.9z"/>
		<path d="M342.5,200c0.4,0,0.8-0.1,1.1-0.4l35-36.2c0.6-0.6,0.5-1.5,0-2.1c-0.6-0.6-1.5-0.5-2.1,0l-35,36.2c-0.6,0.6-0.5,1.5,0,2.1
			C341.8,199.8,342.1,200,342.5,200z"/>
		<path d="M232.4,199.5c0.3,0.3,0.7,0.4,1.1,0.4c0.4,0,0.7-0.1,1-0.4c0.6-0.6,0.6-1.5,0-2.1l-35-36.2c-0.6-0.6-1.5-0.6-2.1,0
			c-0.6,0.6-0.6,1.5,0,2.1L232.4,199.5z"/>
		<path d="M287.9,198.7C287.9,198.7,287.9,198.7,287.9,198.7c0.8,0,1.5-0.7,1.5-1.5l0.1-50.4c0-0.8-0.7-1.5-1.5-1.5c0,0,0,0,0,0
			c-0.8,0-1.5,0.7-1.5,1.5l-0.1,50.4C286.5,198.1,287.1,198.7,287.9,198.7z"/>
		<path d="M416.8,95.2h-259c-9.5,0-17.1,7.7-17.1,17.1v304.5c0,9.5,7.7,17.2,17.1,17.2h93.3c0,36.1,0.1,69.5,0.1,70l0,3.7l36.7-38
			l36.5,38L325,434h91.8c9.5,0,17.2-7.7,17.2-17.2V112.4C434,102.9,426.3,95.2,416.8,95.2z M157.9,99.2h259
			c7.3,0,13.2,5.9,13.2,13.1v237.2c-25,0-244.4,0.4-259.2,2.3c-7.8,1-20.1,11.5-26.1,23.7V112.4C144.7,105.1,150.6,99.2,157.9,99.2z
			 M157.9,430c-7.3,0-13.1-5.9-13.1-13.2v-32.6c3.1-14,18-28.3,26.5-29.5c14.4-1.9,235.3-2.3,258.8-2.3v15.4H325.5l0,0h-74.2l0,0
			H216c-0.8,0-1.5,0.7-1.5,1.5s0.7,1.5,1.5,1.5h35.3c-0.1,16.2-0.1,38-0.1,59.2H157.9z M321.5,500.3l-33.5-35l-33.7,35
			c0-17.2-0.2-89.7,0-129.4h68.2L321.5,500.3z M416.8,430H325l0.4-59.2H430v46C430,424.1,424.1,430,416.8,430z"/>
	</g>
</g>
</svg>
