<?xml version="1.0" encoding="utf-8"?>
<!-- Generator: Adobe Illustrator 22.0.0, SVG Export Plug-In . SVG Version: 6.00 Build 0)  -->
<svg version="1.1" xmlns="http://www.w3.org/2000/svg" xmlns:xlink="http://www.w3.org/1999/xlink" x="0px" y="0px"
	 viewBox="0 0 560 560" style="enable-background:new 0 0 560 560;" xml:space="preserve">
<style type="text/css">
	.st0{display:none;}
	.st1{display:inline;fill:#D0D3D6;}
	.st2{display:inline;fill:#CC0033;}
	.st3{display:inline;fill:#132749;}
	.st4{display:inline;fill:#E6E6E6;}
	.st5{display:inline;}
	.st6{display:inline;fill:#0B1E46;}
	.st7{display:inline;opacity:0.33;}
	.st8{display:inline;fill:#37435E;}
	.st9{display:inline;opacity:0.22;}
	.st10{fill:none;stroke:#000000;stroke-width:4;stroke-linecap:round;stroke-miterlimit:10;}
	.st11{fill:#E6E6E6;}
	.st12{fill:#37435E;}
</style>
<g id="color" class="st0">
	<path class="st1" d="M325,430h91.8c7.3,0,13.2-5.9,13.2-13.2v-46H325.5L325,430z"/>
	<path class="st2" d="M255.8,251.9c0,16.8,14.2,30.4,31.7,30.4c17.5,0,31.7-13.7,31.7-30.4s-14.2-30.4-31.7-30.4
		C270.1,221.5,255.8,235.1,255.8,251.9z"/>
	<path class="st1" d="M144.7,384.3v32.6c0,7.3,5.9,13.2,13.1,13.2h93.3c0-21.2,0-42.9,0.1-59.2H216c-0.8,0-1.5-0.7-1.5-1.5
		s0.7-1.5,1.5-1.5h35.3l0,0h74.2l0,0H430v-15.4c-23.5,0-244.4,0.4-258.8,2.3C162.7,355.9,147.8,370.2,144.7,384.3z"/>
	<path class="st2" d="M254.3,500.3l33.7-35l33.5,35l1-129.4h-68.2C254,410.6,254.2,483.1,254.3,500.3z"/>
	<path class="st3" d="M416.8,99.2h-259c-7.3,0-13.1,5.9-13.1,13.1v263.2c6-12.2,18.3-22.7,26.1-23.7c14.8-2,234.2-2.3,259.2-2.3
		V112.4C430,105.1,424.1,99.2,416.8,99.2z M286.6,146.9c0-0.8,0.7-1.5,1.5-1.5c0,0,0,0,0,0c0.8,0,1.5,0.7,1.5,1.5l-0.1,50.4
		c0,0.8-0.7,1.5-1.5,1.5c0,0,0,0,0,0c-0.8,0-1.5-0.7-1.5-1.5L286.6,146.9z M197.5,161.2c0.6-0.6,1.5-0.5,2.1,0l35,36.2
		c0.6,0.6,0.5,1.5,0,2.1c-0.3,0.3-0.7,0.4-1,0.4c-0.4,0-0.8-0.1-1.1-0.4l-35-36.2C196.9,162.7,196.9,161.8,197.5,161.2z
		 M360.2,252.1c-1.7,1.5-40.8,37.4-72.5,37.4c-0.1,0-0.1,0-0.2,0c-30.8-0.1-71.3-35.9-73-37.4l-1.3-1.1l1.2-1.1
		c1.6-1.5,40.3-35.9,73.7-35.9c34.7,0,70.5,34.4,72,35.9l1.1,1.1L360.2,252.1z M378.6,163.3l-35,36.2c-0.3,0.3-0.7,0.4-1.1,0.4
		c-0.4,0-0.7-0.1-1-0.4c-0.6-0.6-0.6-1.5,0-2.1l35-36.2c0.6-0.6,1.5-0.6,2.1,0C379.1,161.8,379.1,162.7,378.6,163.3z"/>
	<path class="st4" d="M217.9,251c7.2,6.1,43,35.4,69.7,35.5c0,0,0.1,0,0.1,0c27.5,0,62.3-29.5,69.2-35.5c-6.5-5.9-38.6-34-68.7-34
		C259.4,217,224.9,245,217.9,251z M322.2,251.9c0,18.4-15.6,33.4-34.7,33.4s-34.7-15-34.7-33.4s15.6-33.4,34.7-33.4
		S322.2,233.5,322.2,251.9z"/>
	<path class="st5" d="M288.2,214c-33.3,0-72,34.4-73.7,35.9l-1.2,1.1l1.3,1.1c1.7,1.5,42.2,37.3,73,37.4c0.1,0,0.1,0,0.2,0
		c31.6,0,70.8-35.9,72.5-37.4l1.2-1.1l-1.1-1.1C358.7,248.5,323,214,288.2,214z M287.7,286.5c0,0-0.1,0-0.1,0
		c-26.7-0.1-62.5-29.4-69.7-35.5c7-6,41.5-34,70.4-34c30.1,0,62.2,28,68.7,34C350.1,257,315.2,286.5,287.7,286.5z"/>
	<path class="st5" d="M252.9,251.9c0,18.4,15.6,33.4,34.7,33.4s34.7-15,34.7-33.4s-15.6-33.4-34.7-33.4S252.9,233.5,252.9,251.9z
		 M319.3,251.9c0,16.8-14.2,30.4-31.7,30.4c-17.5,0-31.7-13.7-31.7-30.4s14.2-30.4,31.7-30.4C305,221.5,319.3,235.1,319.3,251.9z"/>
	<path class="st5" d="M376.4,161.3l-35,36.2c-0.6,0.6-0.5,1.5,0,2.1c0.3,0.3,0.7,0.4,1,0.4c0.4,0,0.8-0.1,1.1-0.4l35-36.2
		c0.6-0.6,0.5-1.5,0-2.1C377.9,160.7,377,160.7,376.4,161.3z"/>
	<path class="st5" d="M233.5,200c0.4,0,0.7-0.1,1-0.4c0.6-0.6,0.6-1.5,0-2.1l-35-36.2c-0.6-0.6-1.5-0.6-2.1,0
		c-0.6,0.6-0.6,1.5,0,2.1l35,36.2C232.7,199.8,233.1,200,233.5,200z"/>
	<path class="st5" d="M287.9,198.7C287.9,198.7,287.9,198.7,287.9,198.7c0.8,0,1.5-0.7,1.5-1.5l0.1-50.4c0-0.8-0.7-1.5-1.5-1.5
		c0,0,0,0,0,0c-0.8,0-1.5,0.7-1.5,1.5l-0.1,50.4C286.5,198.1,287.1,198.7,287.9,198.7z"/>
	<path class="st5" d="M416.8,95.2h-259c-9.5,0-17.1,7.7-17.1,17.1v304.5c0,9.5,7.7,17.2,17.1,17.2h93.3c0,36.1,0.1,69.5,0.1,70
		l0,3.7l36.7-38l36.5,38L325,434h91.8c9.5,0,17.2-7.7,17.2-17.2V112.4C434,102.9,426.3,95.2,416.8,95.2z M321.5,500.3l-33.5-35
		l-33.7,35c0-17.2-0.2-89.7,0-129.4h68.2L321.5,500.3z M430,416.8c0,7.3-5.9,13.2-13.2,13.2H325l0.4-59.2H430V416.8z M430,367.9
		H325.5l0,0h-74.2l0,0H216c-0.8,0-1.5,0.7-1.5,1.5s0.7,1.5,1.5,1.5h35.3c-0.1,16.2-0.1,38-0.1,59.2h-93.3c-7.3,0-13.1-5.9-13.1-13.2
		v-32.6c3.1-14,18-28.3,26.5-29.5c14.4-1.9,235.3-2.3,258.8-2.3V367.9z M430,349.6c-25,0-244.4,0.4-259.2,2.3
		c-7.8,1-20.1,11.5-26.1,23.7V112.4c0-7.3,5.9-13.1,13.1-13.1h259c7.3,0,13.2,5.9,13.2,13.1V349.6z"/>
</g>
<g id="trazado" class="st0">
	<g class="st5">
		<path d="M288.2,214c-33.3,0-72,34.4-73.7,35.9l-1.2,1.1l1.3,1.1c1.7,1.5,42.2,37.3,73,37.4c0.1,0,0.1,0,0.2,0
			c31.6,0,70.8-35.9,72.5-37.4l1.2-1.1l-1.1-1.1C358.7,248.5,323,214,288.2,214z M287.7,286.5c0,0-0.1,0-0.1,0
			c-26.7-0.1-62.5-29.4-69.7-35.5c7-6,41.5-34,70.4-34c30.1,0,62.2,28,68.7,34C350.1,257,315.2,286.5,287.7,286.5z"/>
		<path d="M252.9,251.9c0,18.4,15.6,33.4,34.7,33.4s34.7-15,34.7-33.4s-15.6-33.4-34.7-33.4S252.9,233.5,252.9,251.9z M319.3,251.9
			c0,16.8-14.2,30.4-31.7,30.4c-17.5,0-31.7-13.7-31.7-30.4s14.2-30.4,31.7-30.4C305,221.5,319.3,235.1,319.3,251.9z"/>
		<path d="M342.5,200c0.4,0,0.8-0.1,1.1-0.4l35-36.2c0.6-0.6,0.5-1.5,0-2.1c-0.6-0.6-1.5-0.5-2.1,0l-35,36.2c-0.6,0.6-0.5,1.5,0,2.1
			C341.8,199.8,342.1,200,342.5,200z"/>
		<path d="M232.4,199.5c0.3,0.3,0.7,0.4,1.1,0.4c0.4,0,0.7-0.1,1-0.4c0.6-0.6,0.6-1.5,0-2.1l-35-36.2c-0.6-0.6-1.5-0.6-2.1,0
			c-0.6,0.6-0.6,1.5,0,2.1L232.4,199.5z"/>
		<path d="M287.9,198.7C287.9,198.7,287.9,198.7,287.9,198.7c0.8,0,1.5-0.7,1.5-1.5l0.1-50.4c0-0.8-0.7-1.5-1.5-1.5c0,0,0,0,0,0
			c-0.8,0-1.5,0.7-1.5,1.5l-0.1,50.4C286.5,198.1,287.1,198.7,287.9,198.7z"/>
		<path d="M416.8,95.2h-259c-9.5,0-17.1,7.7-17.1,17.1v304.5c0,9.5,7.7,17.2,17.1,17.2h93.3c0,36.1,0.1,69.5,0.1,70l0,3.7l36.7-38
			l36.5,38L325,434h91.8c9.5,0,17.2-7.7,17.2-17.2V112.4C434,102.9,426.3,95.2,416.8,95.2z M157.9,99.2h259
			c7.3,0,13.2,5.9,13.2,13.1v237.2c-25,0-244.4,0.4-259.2,2.3c-7.8,1-20.1,11.5-26.1,23.7V112.4C144.7,105.1,150.6,99.2,157.9,99.2z
			 M157.9,430c-7.3,0-13.1-5.9-13.1-13.2v-32.6c3.1-14,18-28.3,26.5-29.5c14.4-1.9,235.3-2.3,258.8-2.3v15.4H325.5l0,0h-74.2l0,0
			H216c-0.8,0-1.5,0.7-1.5,1.5s0.7,1.5,1.5,1.5h35.3c-0.1,16.2-0.1,38-0.1,59.2H157.9z M321.5,500.3l-33.5-35l-33.7,35
			c0-17.2-0.2-89.7,0-129.4h68.2L321.5,500.3z M416.8,430H325l0.4-59.2H430v46C430,424.1,424.1,430,416.8,430z"/>
	</g>
</g>
<g id="color_reg" class="st0">
	<path class="st6" d="M409.5,247H305v58.5h113.5V256C418.5,251.1,414.4,247,409.5,247z"/>
	<path class="st6" d="M305,426h104.5c4.9,0,9-4,9-9v-80.5H305V426z"/>
	<rect x="305" y="311.5" class="st2" width="113.5" height="19"/>
	<path class="st2" d="M275,308.4c0,0,0,0.1,0,0.1s0,0.1,0,0.1v24.7c0,0,0,0.1,0,0.1s0,0.1,0,0.1V426h24v-92.3c0,0,0-0.1,0-0.1
		s0-0.1,0-0.1v-24.7c0,0,0-0.1,0-0.1s0-0.1,0-0.1V247h-24V308.4z"/>
	<path class="st6" d="M159,417c0,4.9,4,9,9,9h101v-89.5H159V417z"/>
	<path class="st6" d="M159,256v49.5h110V247H168C163.1,247,159,251.1,159,256z"/>
	<rect x="159" y="311.5" class="st2" width="110" height="19"/>
	<path class="st6" d="M420.5,215H277c-0.6,0-1.3,0-2,0c-0.6,0-1.3,0-1.9,0H157.3c-4.7,0-8.5,3.8-8.5,8.5s3.8,8.5,8.5,8.5h263.2
		c4.7,0,8.5-3.8,8.5-8.5S425.2,215,420.5,215z"/>
	<path class="st2" d="M365.7,187.4c10.6-11.9,17.3-25.9,18.9-39.5c1.5-13.2-2-24.4-9.9-31.4c-7.9-7.1-19.4-9.3-32.3-6.2
		c-13.3,3.1-26.5,11.4-37.1,23.3c-19,21.3-12.4,64.1-10.6,74.3C304.9,208.3,346.8,208.6,365.7,187.4z M310.8,143.2
		c15.4-17.3,38-22.4,50.4-11.3c12.4,11.1,9.9,34.1-5.5,51.4c-11.6,13-33.9,14.6-44.6,14.6c-3.3,0-5.5-0.2-5.8-0.2l-1.7-0.1l-0.4-1.6
		C303,194.5,295.6,160.2,310.8,143.2z"/>
	<path class="st2" d="M281.4,208.8c1.9-10.2,8.4-53.1-10.6-74.3c-14.2-15.9-32.4-24.7-48-24.7c-8.2,0-15.7,2.4-21.4,7.6
		c-16.7,14.8-12.6,46.7,9,71C229.3,209.6,271.2,209.3,281.4,208.8z M272.1,196l-0.4,1.6l-1.7,0.1c-0.3,0-2.5,0.2-5.8,0.2
		c-10.6,0-33-1.6-44.6-14.6c-7.4-8.3-12-18.1-13.2-27.6c-1.2-9.9,1.6-18.3,7.7-23.7c6.1-5.5,14.8-7.2,24.5-4.9
		c9.4,2.2,18.6,8,26,16.2C279.9,160.2,272.4,194.5,272.1,196z"/>
	<path class="st5" d="M409.5,241H168c-8.3,0-15,6.7-15,15v50.3c-0.6,0.5-1,1.3-1,2.2s0.4,1.6,1,2.2v20.6c-0.6,0.5-1,1.3-1,2.2
		s0.4,1.6,1,2.2V417c0,8.3,6.7,15,15,15h241.5c8.3,0,15-6.7,15-15V256C424.5,247.7,417.8,241,409.5,241z M269,426H168
		c-4.9,0-9-4-9-9v-80.5h110V426z M269,330.5H159v-19h110V330.5z M269,305.5H159V256c0-4.9,4-9,9-9h101V305.5z M299,308.4
		c0,0,0,0.1,0,0.1s0,0.1,0,0.1v24.7c0,0,0,0.1,0,0.1s0,0.1,0,0.1V426h-24v-92.3c0,0,0-0.1,0-0.1s0-0.1,0-0.1v-24.7c0,0,0-0.1,0-0.1
		s0-0.1,0-0.1V247h24V308.4z M418.5,417c0,4.9-4,9-9,9H305v-89.5h113.5V417z M418.5,330.5H305v-19h113.5V330.5z M418.5,305.5H305
		V247h104.5c4.9,0,9,4,9,9V305.5z"/>
	<path class="st5" d="M238.7,126.9c-9.7-2.3-18.3-0.5-24.5,4.9c-6.1,5.5-8.9,13.9-7.7,23.7c1.1,9.6,5.8,19.4,13.2,27.6
		c11.6,13,33.9,14.6,44.6,14.6c3.3,0,5.5-0.2,5.8-0.2l1.7-0.1l0.4-1.6c0.3-1.5,7.8-35.7-7.4-52.8
		C257.3,134.9,248.1,129.1,238.7,126.9z M268.1,193.3c-6.9,0.3-33.1,0.3-45-13c-6.8-7.6-11-16.5-12.1-25.2c-1-8.4,1.2-15.4,6.2-19.9
		c3.5-3.1,8.2-4.8,13.5-4.8c2.2,0,4.5,0.3,6.9,0.8c8.5,2,16.9,7.3,23.6,14.9C273.2,159.5,269.3,186.4,268.1,193.3z"/>
	<path class="st5" d="M303.7,197.6l1.7,0.1c0.3,0,2.5,0.2,5.8,0.2c10.6,0,33-1.6,44.6-14.6c15.4-17.3,17.9-40.3,5.5-51.4
		c-12.4-11-35-6-50.4,11.3c-15.2,17.1-7.8,51.3-7.4,52.8L303.7,197.6z M314.2,146.2c13.8-15.4,33.5-20.3,44.1-10.9
		c10.5,9.4,7.9,29.6-5.8,45.1c-11.9,13.3-38.1,13.3-45,13C306.2,186.4,302.2,159.5,314.2,146.2z"/>
</g>
<g id="trazado_1_" class="st0">
	<g class="st5">
		<path d="M409.5,241H168c-8.3,0-15,6.7-15,15v50.3c-0.6,0.5-1,1.3-1,2.2s0.4,1.6,1,2.2v20.6c-0.6,0.5-1,1.3-1,2.2s0.4,1.6,1,2.2
			V417c0,8.3,6.7,15,15,15h241.5c8.3,0,15-6.7,15-15V256C424.5,247.7,417.8,241,409.5,241z M269,330.5H159v-19h110V330.5z
			 M275,333.6c0,0,0-0.1,0-0.1s0-0.1,0-0.1v-24.7c0,0,0-0.1,0-0.1s0-0.1,0-0.1V247h24v61.3c0,0,0,0.1,0,0.1s0,0.1,0,0.1v24.7
			c0,0,0,0.1,0,0.1s0,0.1,0,0.1V426h-24V333.6z M305,311.5h113.5v19H305V311.5z M418.5,256v49.5H305V247h104.5
			C414.4,247,418.5,251.1,418.5,256z M168,247h101v58.5H159V256C159,251.1,163.1,247,168,247z M159,417v-80.5h110V426H168
			C163.1,426,159,421.9,159,417z M409.5,426H305v-89.5h113.5V417C418.5,421.9,414.4,426,409.5,426z"/>
		<path d="M420.5,209h-80.9c11.5-3.3,22.7-8.8,30.6-17.7c11.4-12.8,18.7-28,20.4-42.8c1.8-15.2-2.4-28.2-11.8-36.6
			c-9.4-8.4-22.8-11.1-37.7-7.6c-14.5,3.4-28.8,12.4-40.2,25.2c-7,7.8-10.9,18-12.9,28.5c-2.1-10.1-5.9-19.9-12.7-27.5
			c-23.8-26.7-58.8-34.6-77.9-17.6c-19.1,17-15.3,52.7,8.6,79.4c7.2,8,17,13.3,27.3,16.7h-76c-8,0-14.5,6.5-14.5,14.5
			s6.5,14.5,14.5,14.5h263.2c8,0,14.5-6.5,14.5-14.5S428.5,209,420.5,209z M305.3,133.5c10.6-11.9,23.8-20.2,37.1-23.3
			c12.9-3,24.4-0.8,32.3,6.2c7.9,7.1,11.4,18.2,9.9,31.4c-1.6,13.6-8.3,27.6-18.9,39.5c-18.9,21.2-60.8,20.9-71,20.5
			C292.9,197.6,286.4,154.8,305.3,133.5z M210.4,188.4c-21.6-24.3-25.7-56.1-9-71c5.8-5.1,13.2-7.6,21.4-7.6
			c15.6,0,33.8,8.8,48,24.7c18.9,21.2,12.4,64.1,10.6,74.3C271.2,209.3,229.3,209.6,210.4,188.4z M288.1,204.8
			c0.3,1.7,0.5,3.1,0.7,4.2h-1.4C287.7,207.9,287.9,206.5,288.1,204.8z M420.5,232H157.3c-4.7,0-8.5-3.8-8.5-8.5s3.8-8.5,8.5-8.5
			h115.8c0.7,0,1.3,0,1.9,0c0.7,0,1.4,0,2,0h143.5c4.7,0,8.5,3.8,8.5,8.5S425.2,232,420.5,232z"/>
		<path d="M238.7,126.9c-9.7-2.3-18.3-0.5-24.5,4.9c-6.1,5.5-8.9,13.9-7.7,23.7c1.1,9.6,5.8,19.4,13.2,27.6
			c11.6,13,33.9,14.6,44.6,14.6c3.3,0,5.5-0.2,5.8-0.2l1.7-0.1l0.4-1.6c0.3-1.5,7.8-35.7-7.4-52.8
			C257.3,134.9,248.1,129.1,238.7,126.9z M268.1,193.3c-6.9,0.3-33.1,0.3-45-13c-6.8-7.6-11-16.5-12.1-25.2
			c-1-8.4,1.2-15.4,6.2-19.9c3.5-3.1,8.2-4.8,13.5-4.8c2.2,0,4.5,0.3,6.9,0.8c8.5,2,16.9,7.3,23.6,14.9
			C273.2,159.5,269.3,186.4,268.1,193.3z"/>
		<path d="M303.7,197.6l1.7,0.1c0.3,0,2.5,0.2,5.8,0.2c10.6,0,33-1.6,44.6-14.6c15.4-17.3,17.9-40.3,5.5-51.4
			c-12.4-11-35-6-50.4,11.3c-15.2,17.1-7.8,51.3-7.4,52.8L303.7,197.6z M314.2,146.2c13.8-15.4,33.5-20.3,44.1-10.9
			c10.5,9.4,7.9,29.6-5.8,45.1c-11.9,13.3-38.1,13.3-45,13C306.2,186.4,302.2,159.5,314.2,146.2z"/>
	</g>
</g>
<g id="Capa_5" class="st0">
	<g class="st7">
		<g>
			<path d="M142.2,289.4c2.8,8.1-0.5,17.3-0.7,25.6c0,1.9,3,1.9,3,0c0.2-8.6,3.5-18,0.6-26.4C144.5,286.8,141.6,287.6,142.2,289.4
				L142.2,289.4z"/>
		</g>
	</g>
	<g class="st7">
		<g>
			<path d="M141.5,311.7c0,21.8,1.5,43.6,1.7,65.5c0.1,10.7-0.1,21.5-1,32.2c-0.8,9.2-2.9,18.3-0.6,27.4c0.5,1.9,3.4,1.1,2.9-0.8
				c-2.3-9.4,0.2-19.1,0.9-28.6c0.8-10.7,1-21.4,0.8-32.2c-0.3-21.2-1.7-42.3-1.7-63.5C144.5,309.7,141.5,309.7,141.5,311.7
				L141.5,311.7z"/>
		</g>
	</g>
	<g class="st7">
		<g>
			<path d="M145.4,291.1c7.9-2.5,17,0.7,25,1.1c9.2,0.5,18.3-0.7,27.4-1.4c18.5-1.5,37.2-1.9,55.8-0.8c19.6,1.2,39,4.3,58.6,5.8
				c19.2,1.4,38.6,1.3,57.8,0.4c22.1-1.1,44.1-3.6,66.3-3.7c1.9,0,1.9-3,0-3c-19.6,0.1-39,2-58.5,3.3c-19.9,1.2-39.9,1.6-59.8,0.4
				c-19.6-1.1-39-4.2-58.6-5.7c-19.3-1.5-38.6-1.2-57.9,0.1c-10.1,0.7-20.1,2.2-30.3,1.7c-8.6-0.4-18.2-3.8-26.7-1
				C142.8,288.8,143.6,291.7,145.4,291.1L145.4,291.1z"/>
		</g>
	</g>
	<g class="st7">
		<g>
			<path d="M433.6,291.3c-4.1,9.8-2.3,20.4-2.7,30.7c-0.5,12.8-0.9,25.5-0.3,38.3c0.6,12.6-0.6,24.7-1.4,37.3
				c-0.8,12.8,2.1,25.3,1.7,38.1c-0.1,1.9,2.9,1.9,3,0c0.4-12.5-2.5-24.7-1.8-37.2c0.7-12.2,2.3-24.1,1.6-36.3
				c-0.7-12.1-0.5-24.3,0-36.4c0.5-11-1.6-23.3,2.8-33.7C437.2,290.3,434.3,289.5,433.6,291.3L433.6,291.3z"/>
		</g>
	</g>
	<g class="st7">
		<g>
			<path d="M142.1,437.1c12.7-4.2,27.7-0.1,40.9,0.1c20.3,0.2,40.6,0.2,60.9-0.1c20.3-0.3,40.6-1.3,61-0.9c20.3,0.4,40.7,1.4,61,1.5
				c22.5,0.1,44.8-1.2,67.2,0.1c1.9,0.1,1.9-2.9,0-3c-20.2-1.1-40.2-0.2-60.4-0.1c-20.7,0.1-41.3-0.8-62-1.3
				c-20.4-0.5-40.6,0.2-61,0.6c-20.6,0.4-41.2,0.2-61.9,0.2c-8.3,0-16.4-0.7-24.6-1.2c-7.2-0.4-15-1-21.9,1.3
				C139.4,434.8,140.2,437.7,142.1,437.1L142.1,437.1z"/>
		</g>
	</g>
	<g class="st7">
		<g>
			<path d="M147.8,286.7c2-6.3,1.4-12.9,2-19.4c0.7-9.2,2.6-18.4,4.9-27.2c3.8-14.8,9.8-29.7,20.1-41.3c10.5-11.8,25.1-20.4,39-27.7
				c15.1-8,31.1-15.2,47.5-19.9c20.8-6,41.2-3.9,62.1,0.6c1.9,0.4,2.7-2.5,0.8-2.9c-17.8-3.9-35.8-6.5-53.9-3
				c-17.6,3.4-34.5,11-50.5,18.8c-14.7,7.2-29.2,15.6-41.5,26.5c-11.5,10.2-18.7,24.1-23.5,38.4c-3.2,9.5-5.3,19.3-6.8,29.2
				c-1.3,8.8-0.2,18.6-2.9,27.1C144.3,287.8,147.2,288.6,147.8,286.7L147.8,286.7z"/>
		</g>
	</g>
	<g class="st7">
		<g>
			<path d="M423.1,290.3c4.6-3.2,1.9-14.9,1.4-19.3c-1.2-12-0.8-24.1-1.7-36.1c-1.6-21.4-2.6-47.4-21.6-61.2
				c-8.8-6.4-19.7-8.4-30.3-9.9c-13-1.8-25.6-4.2-38.3-7.5c-26.9-7.1-52.9-13.2-80.8-7.5c-14.9,3-29.2,9-41.6,17.9
				c-12.1,8.7-22.2,19.8-32.9,30.1c-1.4,1.3,0.7,3.5,2.1,2.1c8.7-8.3,16.9-17.2,26.2-24.9c10.2-8.4,21.8-14.9,34.3-19
				c26-8.5,52.3-6.1,78.3,0.6c11.9,3.1,23.8,6.6,35.9,8.8c10.3,1.9,21,2.4,31.1,5.2c11,3.1,20.4,9.8,25.8,20.1
				c5.3,10.1,6.6,22,7.7,33.2c1.4,14.1,1.3,28.2,2.3,42.4c0.2,3.4,0.7,6.8,0.9,10.2c0.2,1.9,1.7,11.1-0.4,12.5
				C420,288.8,421.5,291.4,423.1,290.3L423.1,290.3z"/>
		</g>
	</g>
	<g class="st7">
		<g>
			<path d="M221.8,160.1c2.7-6.7,1.3-14.7,2.7-21.7c1.9-9.5,5.3-18.5,10.3-26.8c8.5-14,21.3-28.5,36.3-35.6
				c22.8-10.9,56.6-3.3,68.5,20.3c4.5,9,4.7,19.3,5,29.1c0.3,11.5,2.5,22.8,2.2,34.3c0,1.9,3,1.9,3,0c0.3-11.2-1.8-22.3-2.2-33.4
				c-0.3-9.6-0.4-19.5-4.1-28.6c-4.9-11.9-15.2-20.5-27-25.2c-12.6-5-27.2-5.9-40.2-1.8c-15.3,4.8-28.2,17.4-37.7,30
				c-6.5,8.5-11.9,18.1-14.9,28.4c-1.5,5-2.7,10.3-3.1,15.6c-0.4,4.8,0.2,10-1.6,14.6C218.2,161.1,221.1,161.8,221.8,160.1
				L221.8,160.1z"/>
		</g>
	</g>
	<g class="st7">
		<g>
			<path d="M218.7,335.8c5.5-2.3,11.7-2.1,17.5-2c6.6,0.1,13.2-0.1,19.7,0c15.8,0.2,31.5,2.2,47.3,2.1c13.6-0.1,27.5-0.1,41.1-1.4
				c4-0.4,8.1-0.8,12.1-1c2.6-0.1,10.3-1.1,11.9,1.7c1,1.7,3.5,0.2,2.6-1.5c-3.2-5.6-16.1-3.1-21.1-2.7c-13.6,1.2-27.2,1.7-40.8,1.9
				c-17.5,0.3-34.7-1.7-52.2-2c-7.1-0.1-14.3,0-21.5,0c-5.8,0-12.1-0.1-17.6,2.1C216.2,333.6,216.9,336.5,218.7,335.8L218.7,335.8z"
				/>
		</g>
	</g>
	<g class="st7">
		<g>
			<path d="M372.9,338.1c1.4,5.9-4.1,14-6.3,19.4c-3.3,8-7.2,15.8-12.1,23c-8.7,12.8-21.7,22.9-36.9,26.5c-7.7,1.8-15.9,1.8-23.7,2
				c-8.4,0.2-17,0.1-25.4-1.2c-7.3-1.2-14.7-3.3-20.8-7.6c-5.7-4-9.6-9.7-12.7-15.9c-8-15.6-17-32.7-17.2-50.6c0-1.9-3-1.9-3,0
				c0.2,17.7,8.7,33.5,16.2,49.2c6.6,13.8,16.2,23.2,31.5,26.8c8.7,2,17.7,2.5,26.6,2.4c8.3,0,16.8-0.1,25-1.4
				c16.4-2.5,30.7-12.3,40.6-25.3c5.9-7.7,10.3-16.5,14.1-25.4c2.7-6.3,8.7-15.5,7-22.6C375.3,335.4,372.4,336.2,372.9,338.1
				L372.9,338.1z"/>
		</g>
	</g>
	<g class="st7">
		<g>
			<path d="M142.3,292.8c-11.2,0.7-23.8-6.5-34.3,0c-7.1,4.4-8.1,14.1-9.2,21.6c-2,14.5,0.8,30.3,3.3,44.6
				c2.2,12.3,6,25.6,14.2,35.2c8.1,9.5,21.5,15.5,33.6,10.8c1.8-0.7,1-3.6-0.8-2.9c-14.6,5.7-28.8-5-35.6-17.4
				c-7.6-14-9.3-30-11.2-45.5c-1.1-8.5-1.8-17-0.5-25.5c0.7-4.8,1.3-10.4,3.9-14.6c7.5-12.1,25.4-2.6,36.4-3.4
				C144.3,295.7,144.3,292.7,142.3,292.8L142.3,292.8z"/>
		</g>
	</g>
	<g class="st7">
		<g>
			<path d="M141.7,295.6c-3.4,7.3-10.9,12.3-17,17.1c-7.8,6.1-15.7,9.3-25.7,9.4c-1.9,0-1.9,3,0,3c9.5-0.2,18.1-2.8,25.6-8.6
				c7.1-5.5,15.8-11.1,19.7-19.5C145.1,295.4,142.5,293.8,141.7,295.6L141.7,295.6z"/>
		</g>
	</g>
	<g class="st7">
		<g>
			<path d="M100.1,319.6c-7.2-2.8-16.2,7-11.3,13.6c2.1,2.8,5.6,2.6,8.1,0.5c2.9-2.3,4.1-6.3,2.8-9.7c-0.7-1.8-3.6-1-2.9,0.8
				c0.8,2.2,0.3,4.6-1.5,6.3c-1.4,1.4-3.4,1.8-4.5-0.1c-2.6-4.5,4.1-10.1,8.4-8.4C101.1,323.2,101.8,320.3,100.1,319.6L100.1,319.6z
				"/>
		</g>
	</g>
	<g class="st7">
		<g>
			<path d="M433.7,298.5c6.5,0.4,12.7-0.8,19.1-1.6c5.2-0.6,15.1-2.2,17.4,4.2c1.5,4-0.1,9.1-0.7,13.1c-0.9,5.6-1.5,11.2-2.4,16.8
				c-2,12.3-5.1,24.8-13.2,34.7c-4.2,5.1-9.1,9.5-15.3,11.8c-4.4,1.7-8.8,2.9-12.5,5.9c-1.5,1.2,0.6,3.3,2.1,2.1
				c5.3-4.2,12.5-4.7,18.1-8.6c5-3.4,9.3-8.1,12.7-13.2c7.9-11.6,10.2-25.9,12-39.5c0.8-5.6,1.9-11.2,2.4-16.8
				c0.3-3.6,0.3-7.7-2.3-10.5c-3.4-3.7-9.4-3.6-13.9-3.3c-7.9,0.4-15.5,2.5-23.5,2C431.7,295.4,431.7,298.4,433.7,298.5L433.7,298.5
				z"/>
		</g>
	</g>
	<g class="st7">
		<g>
			<path d="M434.2,299.3c-1.5,6.5,5.5,13.4,9.8,17.2c7.2,6.4,17.2,4.7,24.9,9.8c1.6,1.1,3.1-1.5,1.5-2.6c-6.4-4.3-14.7-3.2-21.2-7.1
				c-4.4-2.6-13.4-10.8-12.1-16.6C437.5,298.2,434.7,297.4,434.2,299.3L434.2,299.3z"/>
		</g>
	</g>
	<g class="st7">
		<g>
			<path d="M479.4,320.2c-7.6-2.3-11.9,11-4,13.2c5.3,1.5,7.6-5.6,5.4-9.4c-2-3.4-6-3.7-9.5-3.2c-1.9,0.3-1.1,3.2,0.8,2.9
				c2.2-0.3,5.1-0.2,6.2,2c0.6,1.2,0.5,3-0.4,4.1c-1.2,1.5-3.1,0.3-3.6-1.2c-0.9-2.5,1.4-6.4,4.3-5.6
				C480.5,323.7,481.2,320.8,479.4,320.2L479.4,320.2z"/>
		</g>
	</g>
	<g class="st7">
		<g>
			<path d="M154.1,282.1c1.8-1.8,2.3-5,2.9-7.4c1.1-4.4,1.8-8.9,2.7-13.4c2.1-10.8,5.6-22,10.8-31.8c6.3-11.8,16.9-21.6,27.1-30
				c10.7-9,22.6-16.7,35.3-22.5c13.1-5.9,28.2-10.4,42.5-11.3c7.1-0.5,14.1,0.6,21.2,1.1c8.1,0.5,16.3,0.9,24.4,1.5
				c15.1,1.1,28,6.1,41.3,13.1c11.1,5.8,22.9,11,30.5,21.4c8.1,11.2,10,26.4,13,39.6c3.6,15.5,6.7,31.3,5.7,47.2
				c-0.1,1.9,2.9,1.9,3,0c0.8-13.8-1.4-27.7-4.3-41.2c-1.5-7.1-3.3-14.1-5-21.1c-1.5-6.1-2.7-12.3-5.3-18.1
				c-4.8-10.5-13.1-18.4-23.2-23.7c-12.3-6.4-24.4-13.7-37.8-17.6c-14.5-4.2-30.3-3.4-45.2-4.5c-8.1-0.6-15.9-1.4-24.1-0.2
				c-7.6,1.1-15,3.1-22.3,5.3c-26.3,7.6-50,24.5-68.4,44.6c-10.5,11.5-15.7,24.5-20.1,39.2c-1.4,4.7-2.2,9.4-3.1,14.2
				c-0.7,3.5-1,10.6-3.6,13.3C150.6,281.3,152.7,283.4,154.1,282.1L154.1,282.1z"/>
		</g>
	</g>
	<g class="st7">
		<g>
			<path d="M249.8,149.4c2.6-8.1,2.2-16.5,3.9-24.8c1.6-7.4,5.4-14.6,10.1-20.5c8.7-10.8,25.5-22.3,39.8-18.1
				c13.8,4.1,22.6,15.7,23.9,29.6c1.3,14.4-4.3,29.7,0.1,43.7c0.6,1.8,3.5,1.1,2.9-0.8c-4.2-13.5,1.2-28.4,0.1-42.3
				c-0.8-9.6-3.6-17.8-11-24.2c-9.5-8.3-21-12.7-33.2-7.9c-10.1,4-19.9,11.2-26.3,20.1c-4,5.6-7.4,12-9,18.7
				c-1.9,8.5-1.4,17.3-4.1,25.6C246.3,150.4,249.2,151.2,249.8,149.4L249.8,149.4z"/>
		</g>
	</g>
</g>
<g id="color_1_" class="st0">
	<path class="st2" d="M227.5,159.5c3.1-0.4,6.6-0.7,10.2-1c-1.9-8.3-6.6-34.2,4.6-47.5c13.8-16.5,38.1-20.2,45.6-20.2
		c8.4,0,45.6,9.2,53.1,21.5c4.5,7.5-0.1,36.5-1.7,45.5c5.5,0.4,10,0.9,13.1,1.4c3.5-20.2,6.9-50.5,2.9-57.2
		c-8.5-14.1-55.9-26.7-67.8-26.7c-11.9,0-41.8,6.3-58,25.6c-13.1,15.6-7.8,47.5-5.3,59.1C225.1,159.8,226.3,159.7,227.5,159.5z"/>
	<path class="st8" d="M102.5,332.1c1.5,26.9,6,51.6,15,57.8c12.8,8.8,21.1,7.7,24.5,6.6v-87.2c-8,8-24.6,23.1-37,23.1
		C104.1,332.3,103.3,332.2,102.5,332.1z"/>
	<path class="st8" d="M417.4,286.7c0.3-10.5,1.1-47.3-1-70.4c-2.4-26.1-42.9-46-64-50.8c-15.1-3.5-88.2-4-124.3,0.1
		c-36.9,4.2-64.8,35.6-69.4,51.3c-2,7-2.6,50.8-2.7,69.9c0.3,0,0.7-0.1,1-0.1H417.4z"/>
	<path class="st2" d="M141.2,303.9l-36.8,0.3c-1.4,0-2.5,1.1-2.5,2.5c0,6.9,0.1,13.9,0.4,20.9C112.3,331.1,132,313.4,141.2,303.9z"
		/>
	<path class="st2" d="M473.3,304.1l-36.8-0.3c9.1,9.5,28.9,27.2,38.9,23.7c0.3-7,0.4-14.1,0.4-20.9
		C475.8,305.3,474.7,304.2,473.3,304.1z"/>
	<path class="st8" d="M435.3,308.9v87.4c3.2,1.2,11.6,2.7,24.9-6.5c9-6.2,13.5-31,15-57.8c-0.8,0.2-1.6,0.2-2.5,0.2
		C460.1,332.3,443.2,316.9,435.3,308.9z"/>
	<path class="st2" d="M357.5,336l-139.1-0.1c-0.2,0-0.3,0.1-0.4,0.3c-1.3,7.3-4.2,32.7,11.5,51.2c11.8,13.9,31.5,21,58.5,21
		c0.3,0,0.6,0,0.9,0c27.6-0.2,47.4-7.4,59-21.4c15-18.2,11.8-43,10.5-50.2C358.3,336.3,358,336,357.5,336z"/>
	<path class="st8" d="M420.3,292.7H157c-5,0-9,4-9,9v122c0,5,4,9,9,9h263.3c5,0,9-4,9-9v-122C429.3,296.7,425.3,292.7,420.3,292.7z
		 M351.3,389.7c-12.5,15.1-33.4,22.9-62.4,23c-0.3,0-0.6,0-0.9,0c-28.4,0-49.2-7.6-61.9-22.5c-16.9-20-13.8-47-12.5-54.8
		c0.4-2.3,2.4-3.9,4.7-3.9c0,0,0,0,0,0l139.1,0.1c2.5,0,4.7,1.8,5.2,4.3C364.1,343.5,367.6,370,351.3,389.7z"/>
	<path class="st5" d="M357.5,331.6l-139.1-0.1c0,0,0,0,0,0c-2.3,0-4.3,1.6-4.7,3.9c-1.3,7.8-4.4,34.8,12.5,54.8
		c12.6,14.9,33.4,22.5,61.9,22.5c0.3,0,0.6,0,0.9,0c28.9-0.2,49.9-7.9,62.4-23c16.2-19.7,12.8-46.2,11.4-53.8
		C362.2,333.4,360.1,331.6,357.5,331.6z M348,386.9c-11.6,14.1-31.5,21.3-59,21.4c-0.3,0-0.6,0-0.9,0c-27.1,0-46.7-7-58.5-21
		c-15.7-18.5-12.8-43.9-11.5-51.2c0-0.2,0.2-0.3,0.4-0.3l139.1,0.1c0.4,0,0.8,0.3,0.9,0.7C359.8,343.8,363,368.7,348,386.9z"/>
	<path class="st5" d="M473.4,299.8l-38.2-0.3c-0.9-6.2-5.6-11.2-11.7-12.5c0.3-10.4,1.1-47.7-1.1-71.3c-2.7-28.8-42.4-48.7-64.2-55
		c2.3-13.1,8.3-51.7,2.2-61.8c-10.3-17-61.5-29.6-73-29.6c-10.2,0-43.6,5.1-62.6,27.7c-14.9,17.8-9.4,51.6-6.6,64.1
		c-17.4,4.1-31.2,13.2-40.2,20.7c-12.4,10.4-22,23.1-24.9,33.2c-2.7,9.2-2.9,64.5-2.9,73.3c-4.1,2.2-7.1,6.3-7.8,11.1l-37.9,0.3
		c-3.7,0-6.8,3.1-6.8,6.8c-0.1,22.4,1.3,75.8,17.5,86.9c9.3,6.4,16.6,8.1,21.9,8.1c2,0,3.7-0.3,5.1-0.6v22.7c0,8.3,6.7,15,15,15
		h263.3c8.3,0,15-6.7,15-15v-22.7c1.4,0.4,3.3,0.7,5.4,0.7c5.3,0,12.6-1.7,21.9-8.1c16.2-11.1,17.6-64.5,17.5-86.9
		C480.2,302.9,477.1,299.8,473.4,299.8z M101.8,306.6c0-1.4,1.1-2.5,2.5-2.5l36.8-0.3c-9.1,9.5-28.9,27.2-38.9,23.7
		C101.9,320.6,101.8,313.5,101.8,306.6z M142,396.5c-3.4,1.2-11.7,2.3-24.5-6.6c-9-6.2-13.5-31-15-57.8c0.8,0.2,1.6,0.2,2.5,0.2
		c12.4,0,29-15.1,37-23.1V396.5z M229.3,100.9c16.2-19.3,46.1-25.6,58-25.6c11.9,0,59.3,12.6,67.8,26.7c4.1,6.7,0.6,37-2.9,57.2
		c-3.1-0.6-7.5-1-13.1-1.4c1.6-9,6.2-38,1.7-45.5c-7.5-12.4-44.7-21.5-53.1-21.5c-7.4,0-31.7,3.7-45.6,20.2
		c-11.2,13.4-6.5,39.3-4.6,47.5c-3.6,0.3-7,0.6-10.2,1c-1.2,0.1-2.3,0.3-3.5,0.5C221.5,148.4,216.2,116.6,229.3,100.9z M334.9,157.6
		c-24.3-1.4-63.8-1.3-92.8,0.7c-1.6-6.9-6.6-32.3,3.6-44.4c11.8-14.1,33.5-18.6,42.2-18.6c8.7,0,43.2,9.2,49.4,19.4
		C340.2,119.7,337.5,142.9,334.9,157.6z M158.7,216.8c4.6-15.7,32.5-47.2,69.4-51.3c36-4.1,109.1-3.5,124.3-0.1
		c21.1,4.8,61.5,24.7,64,50.8c2.2,23.1,1.3,59.9,1,70.4H157c-0.3,0-0.7,0-1,0.1C156.1,267.6,156.6,223.8,158.7,216.8z M429.3,423.7
		c0,5-4,9-9,9H157c-5,0-9-4-9-9v-122c0-5,4-9,9-9h263.3c5,0,9,4,9,9V423.7z M460.2,389.9c-13.3,9.1-21.7,7.6-24.9,6.5v-87.4
		c7.8,7.9,24.8,23.4,37.3,23.4c0.9,0,1.7-0.1,2.5-0.2C473.6,359,469.2,383.7,460.2,389.9z M475.4,327.6c-10,3.5-29.8-14.2-38.9-23.7
		l36.8,0.3c1.4,0,2.5,1.1,2.5,2.5C475.9,313.5,475.7,320.6,475.4,327.6z"/>
</g>
<g id="trazado_2_" class="st0">
	<g class="st5">
		<path d="M357.5,331.6l-139.1-0.1c0,0,0,0,0,0c-2.3,0-4.3,1.6-4.7,3.9c-1.3,7.8-4.4,34.8,12.5,54.8c12.6,14.9,33.4,22.5,61.9,22.5
			c0.3,0,0.6,0,0.9,0c28.9-0.2,49.9-7.9,62.4-23c16.2-19.7,12.8-46.2,11.4-53.8C362.2,333.4,360.1,331.6,357.5,331.6z M348,386.9
			c-11.6,14.1-31.5,21.3-59,21.4c-0.3,0-0.6,0-0.9,0c-27.1,0-46.7-7-58.5-21c-15.7-18.5-12.8-43.9-11.5-51.2c0-0.2,0.2-0.3,0.4-0.3
			l139.1,0.1c0.4,0,0.8,0.3,0.9,0.7C359.8,343.8,363,368.7,348,386.9z"/>
		<path d="M480.2,306.6c0-3.7-3.1-6.8-6.8-6.8l-38.2-0.3c-0.9-6.2-5.6-11.2-11.7-12.5c0.3-10.4,1.1-47.7-1.1-71.3
			c-2.7-28.8-42.4-48.7-64.2-55c2.3-13.1,8.3-51.7,2.2-61.8c-10.3-17-61.5-29.6-73-29.6c-10.2,0-43.6,5.1-62.6,27.7
			c-14.9,17.8-9.4,51.6-6.6,64.1c-17.4,4.1-31.2,13.2-40.2,20.7c-12.4,10.4-22,23.1-24.9,33.2c-2.7,9.2-2.9,64.5-2.9,73.3
			c-4.1,2.2-7.1,6.3-7.8,11.1l-37.9,0.3c-3.7,0-6.8,3.1-6.8,6.8c-0.1,22.4,1.3,75.8,17.5,86.9c9.3,6.4,16.6,8.1,21.9,8.1
			c2,0,3.7-0.3,5.1-0.6v22.7c0,8.3,6.7,15,15,15h263.3c8.3,0,15-6.7,15-15v-22.7c1.4,0.4,3.3,0.7,5.4,0.7c5.3,0,12.6-1.7,21.9-8.1
			C478.8,382.4,480.3,329,480.2,306.6z M101.8,306.6c0-1.4,1.1-2.5,2.5-2.5l36.8-0.3c-9.1,9.5-28.9,27.2-38.9,23.7
			C101.9,320.6,101.8,313.5,101.8,306.6z M117.5,389.9c-9-6.2-13.5-31-15-57.8c0.8,0.2,1.6,0.2,2.5,0.2c12.4,0,29-15.1,37-23.1v87.2
			C138.6,397.6,130.3,398.7,117.5,389.9z M229.3,100.9c16.2-19.3,46.1-25.6,58-25.6c11.9,0,59.3,12.6,67.8,26.7
			c4.1,6.7,0.6,37-2.9,57.2c-3.1-0.6-7.5-1-13.1-1.4c1.6-9,6.2-38,1.7-45.5c-7.5-12.4-44.7-21.5-53.1-21.5
			c-7.4,0-31.7,3.7-45.6,20.2c-11.2,13.4-6.5,39.3-4.6,47.5c-3.6,0.3-7,0.6-10.2,1c-1.2,0.1-2.3,0.3-3.5,0.5
			C221.5,148.4,216.2,116.6,229.3,100.9z M242,158.3c-1.6-6.9-6.6-32.3,3.6-44.4c11.8-14.1,33.5-18.6,42.2-18.6
			c8.7,0,43.2,9.2,49.4,19.4c3,5,0.3,28.2-2.3,42.9C310.6,156.2,271,156.2,242,158.3z M158.7,216.8c4.6-15.7,32.5-47.2,69.4-51.3
			c36-4.1,109.1-3.5,124.3-0.1c21.1,4.8,61.5,24.7,64,50.8c2.2,23.1,1.3,59.9,1,70.4H157c-0.3,0-0.7,0-1,0.1
			C156.1,267.6,156.6,223.8,158.7,216.8z M429.3,423.7c0,5-4,9-9,9H157c-5,0-9-4-9-9v-122c0-5,4-9,9-9h263.3c5,0,9,4,9,9V423.7z
			 M475.8,306.6c0,6.9-0.1,13.9-0.4,20.9c-10,3.5-29.8-14.2-38.9-23.7l36.8,0.3C474.7,304.2,475.8,305.3,475.8,306.6z M460.2,389.9
			c-13.3,9.1-21.7,7.6-24.9,6.5v-87.4c7.8,7.9,24.8,23.4,37.3,23.4c0.9,0,1.7-0.1,2.5-0.2C473.6,359,469.2,383.7,460.2,389.9z"/>
	</g>
</g>
<g id="Capa_8" class="st0">
	<g class="st9">
		<g>
			<path d="M358.6,431.9c-24.8,24.8-49.4,49.7-73.3,75.3c-1.3,1.4,0.8,3.5,2.1,2.1c23.9-25.6,48.5-50.6,73.3-75.3
				C362.1,432.7,360,430.6,358.6,431.9L358.6,431.9z"/>
		</g>
	</g>
	<g class="st9">
		<g>
			<path d="M214.6,432.7c12.8,12.2,23,26.8,36.1,38.7c12.9,11.6,23,25.9,34.6,38.7c1.3,1.4,3.4-0.7,2.1-2.1
				c-11.6-12.8-21.7-27-34.6-38.7c-13.1-11.9-23.3-26.5-36.1-38.7C215.3,429.3,213.2,431.4,214.6,432.7L214.6,432.7z"/>
		</g>
	</g>
	<g class="st9">
		<g>
			<path d="M322.9,157.4c2.3,8.7,3.4,17.6,4.5,26.5c1.1,8.8,2.9,17.4,3.9,26.2c2.2,18,1.1,36.2,1.6,54.3
				c0.9,35.8,5.5,71.3,12.5,106.4c2,10.2,4.2,20.3,6.7,30.4c2.6,10.5,5.3,20.9,5.4,31.8c0,1.9,3,1.9,3,0
				c-0.1-17.6-6.3-34.7-9.9-51.8c-3.9-18.4-7.3-37-9.8-55.6c-2.5-18.4-4.1-36.9-4.8-55.4c-0.7-18.7,0.4-37.6-1.4-56.3
				c-0.9-9.8-3-19.4-4.2-29.1c-1.2-9.5-2.3-19-4.7-28.2C325.3,154.7,322.4,155.5,322.9,157.4L322.9,157.4z"/>
		</g>
	</g>
	<g class="st9">
		<g>
			<path d="M242.2,156.3c1.6,16.7-5.6,33.6-8.6,49.9c-3.2,17.7-5.5,35.6-7.6,53.5c-4.4,37.6-3.8,75.5-5.7,113.3
				c-1.1,21-3.5,41.8-6.1,62.6c-0.2,1.9,2.8,1.9,3,0c2.2-18.2,4.4-36.4,5.6-54.7c1.2-18.7,1.6-37.5,2.1-56.2
				c1.1-38.2,4.3-76.2,10.9-113.8c1.7-9.6,3.9-19,6.3-28.4c2.1-8.5,3.9-17.3,3.1-26.1C245,154.4,242,154.4,242.2,156.3L242.2,156.3z
				"/>
		</g>
	</g>
	<g class="st9">
		<g>
			<path d="M242.6,159.1c5.4,1.6,10.6,0.3,16.1-0.3c7-0.7,14.3,0.1,21.3,0.3c14.8,0.3,29.6-0.6,44.3-0.6c1.9,0,1.9-3,0-3
				c-14.1,0-28.3,0.9-42.4,0.6c-6.7-0.1-13.5-0.7-20.2-0.5c-6.1,0.2-12.3,2.4-18.3,0.6C241.5,155.7,240.8,158.6,242.6,159.1
				L242.6,159.1z"/>
		</g>
	</g>
	<g class="st9">
		<g>
			<path d="M177.3,108.6c-8.5,10.6-14.9,25.7-7.6,38.9c3.1,5.6,8.2,6.6,14.1,6.4c10.2-0.4,20.4-0.4,30.7-0.6
				c41.8-1,83.6-2.2,125.4-2.8c13-0.2,27.6,2.2,40.2-1.9c11.4-3.8,13.9-15.4,11.2-26.2c-3.2-12.9-12.3-20.3-25.3-21.2
				c-7.6-0.5-15.1,0.5-22.6,0.8c-10.6,0.5-21.2,0.2-31.7,0.1c-23.7-0.2-47.2,2.3-70.9,3.5c-11.5,0.6-23,0.3-34.5,1.2
				c-11.7,0.9-23.4,2.1-35.2,1.3c-1.9-0.1-1.9,2.9,0,3c17.8,1.2,35.5-1.9,53.3-2c18.4-0.1,36.7-2,55.1-3.1c18.4-1.2,36.6-0.5,55-0.7
				c7.3-0.1,14.5-0.7,21.8-1c7.1-0.3,15.4-0.7,21.7,3.2c9.8,5.9,16,24.7,7.9,34.3c-7.1,8.3-23.6,6.1-33.3,5.9
				c-16.4-0.5-32.9,0.5-49.4,0.9c-18.5,0.5-37,0.5-55.5,0.9c-20.5,0.5-41.1,0.9-61.6,1.4c-4.4,0.1-8.6,1-12-2.4
				c-3.3-3.3-3.9-8.7-4.1-13.1c-0.5-9.8,3.5-17.1,9.5-24.5C180.6,109.2,178.5,107.1,177.3,108.6L177.3,108.6z"/>
		</g>
	</g>
	<g class="st9">
		<g>
			<path d="M242.5,97c0.6-9.2-1.9-18.2-2.7-27.3c-0.2-2.5-0.5-5-0.6-7.5c-0.2-4.2,0.5-6.2,4.6-7.8c4.8-1.9,10.3-2.4,15.4-3.3
				c4.9-0.9,9.8-1.7,14.8-2.2c9.5-1,21.6-1.7,29.4,4.9c11.5,9.7,3.7,28.6,4.7,41.2c0.4-0.5,0.7-1,1.1-1.4
				c-12.1,4.3-25.3,3.4-37.9,3.3c-11.1-0.1-23.2-4.1-34.1-0.6c-1.8,0.6-1,3.5,0.8,2.9c6.1-2,12.5-1.1,18.8-0.4
				c5.9,0.8,11.7,1,17.6,1.1c11.9,0.2,24.2,0.6,35.6-3.4c0.6-0.2,1.2-0.8,1.1-1.4c-1-12.5,5.1-27-1.6-38.6
				c-4-6.9-11.6-9.8-19.1-10.7c-9.4-1.1-18.9,0.2-28.1,1.8c-4.2,0.7-8.5,1.5-12.7,2.3c-3.9,0.8-9.4,1.7-12,5
				c-2.8,3.6-1.2,9.9-0.9,14.1c0.7,9.3,3.3,18.6,2.7,28C239.4,98.9,242.4,98.9,242.5,97L242.5,97z"/>
		</g>
	</g>
	<g class="st9">
		<g>
			<path d="M282.2,187.4c2.9,8.1,0.2,17,0,25.3c-0.3,10.6,0.7,21.5,1.2,32.1c0.5,10.9-0.3,21.7-0.6,32.6c-0.3,10,2.2,20,0.1,29.9
				c-0.4,1.9,2.5,2.7,2.9,0.8c2-9.4,0-18.8,0-28.3c-0.1-11.7,1.2-23.3,0.6-35c-0.5-10.8-1.7-21.9-1.2-32.8
				c0.4-8.4,2.8-17.3-0.1-25.4C284.5,184.8,281.6,185.6,282.2,187.4L282.2,187.4z"/>
		</g>
	</g>
	<g class="st9">
		<g>
			<path d="M284.3,316.9c-0.5-0.9-1.7-1.3-2.5-0.5c-0.6,0.5-0.5,1.3-0.4,2c0.1,1.8,0.7,3.8,0.2,5.5c-0.5,1.9,2.4,2.7,2.9,0.8
				c0.3-1.3,0.2-2.7,0.1-4c-0.1-0.6-0.1-1.2-0.2-1.9c0-0.3,0-0.5-0.1-0.8c-0.1-0.5,0.3-0.4-0.2,0.2c-0.4,0.2-0.9,0.5-1.3,0.7
				c-1-0.8-1.4-1-1.1-0.6C282.7,320.1,285.3,318.6,284.3,316.9L284.3,316.9z"/>
		</g>
	</g>
	<g class="st9">
		<g>
			<path d="M282.8,337.7c1.1,17.1-2.6,34.1-1.8,51.3c0.8,17.6,2.6,35.1,2.5,52.7c0,1.9,3,1.9,3,0c0.2-17.6-1.6-35.1-2.5-52.7
				c-0.8-17.2,2.9-34.2,1.8-51.3C285.7,335.8,282.7,335.7,282.8,337.7L282.8,337.7z"/>
		</g>
	</g>
</g>
<g id="color_2_" class="st0">
	<path class="st1" d="M243.7,159.7l-24.9,272.1l69.5,67.5l69.5-67.4L329.6,160L243.7,159.7z M289.2,433c0,1.1-0.9,2-2,2s-2-0.9-2-2
		v-91.7c0-1.1,0.9-2,2-2s2,0.9,2,2V433z M289.2,324.3c0,1.1-0.9,2-2,2s-2-0.9-2-2v-19c0-1.1,0.9-2,2-2s2,0.9,2,2V324.3z M289.2,288
		c0,1.1-0.9,2-2,2s-2-0.9-2-2V181c0-1.1,0.9-2,2-2s2,0.9,2,2V288z"/>
	<path class="st2" d="M255.9,93.4h61.5c4.9,0,8.9-4,8.9-8.9V47.4c0-4.9-4-8.9-8.9-8.9h-61.5c-4.9,0-8.9,4-8.9,8.9v37.2
		C247,89.4,251,93.4,255.9,93.4z"/>
	<path class="st2" d="M413.5,111.3h-250c-6.9,0-12.5,5.6-12.5,12.5v6c0,6.9,5.6,12.5,12.5,12.5h250c6.9,0,12.5-5.6,12.5-12.5v-6
		C426,116.9,420.4,111.3,413.5,111.3z"/>
	<path class="st5" d="M335.5,158.4c-0.3-2.5-2.3-4.4-4.8-4.4l-86.9-0.3c0,0,0,0,0,0c-3.1,0-5.7,2.3-5.9,5.4l-25,272.1
		c-0.2,1.8,0.5,3.1,1.8,4.9l69.8,67.7c1.1,1.1,2.5,1.6,3.9,1.6s2.8-0.5,3.9-1.6l69.8-67.7c1.3-1.3,2-3.1,1.8-5L335.5,158.4z
		 M288.3,499.3l-69.5-67.5l24.9-272.1l85.9,0.3l28.2,271.9L288.3,499.3z"/>
	<path class="st5" d="M413.5,105.3h-250c-10.2,0-18.5,8.3-18.5,18.5v6c0,10.2,8.3,18.5,18.5,18.5h250c10.2,0,18.5-8.3,18.5-18.5v-6
		C432,113.6,423.7,105.3,413.5,105.3z M426,129.8c0,6.9-5.6,12.5-12.5,12.5h-250c-6.9,0-12.5-5.6-12.5-12.5v-6
		c0-6.9,5.6-12.5,12.5-12.5h250c6.9,0,12.5,5.6,12.5,12.5V129.8z"/>
	<path class="st5" d="M255.9,99.7h61.5c8.3,0,15.1-6.8,15.1-15.1V47.4c0-8.3-6.8-15.1-15.1-15.1h-61.5c-8.3,0-15.1,6.8-15.1,15.1
		v37.2C240.8,92.9,247.6,99.7,255.9,99.7z M247,47.4c0-4.9,4-8.9,8.9-8.9h61.5c4.9,0,8.9,4,8.9,8.9v37.2c0,4.9-4,8.9-8.9,8.9h-61.5
		c-4.9,0-8.9-4-8.9-8.9V47.4z"/>
	<path class="st5" d="M287.2,179c-1.1,0-2,0.9-2,2v107c0,1.1,0.9,2,2,2s2-0.9,2-2V181C289.2,179.9,288.3,179,287.2,179z"/>
	<path class="st5" d="M287.2,303.3c-1.1,0-2,0.9-2,2v19c0,1.1,0.9,2,2,2s2-0.9,2-2v-19C289.2,304.2,288.3,303.3,287.2,303.3z"/>
	<path class="st5" d="M287.2,339.3c-1.1,0-2,0.9-2,2V433c0,1.1,0.9,2,2,2s2-0.9,2-2v-91.7C289.2,340.2,288.3,339.3,287.2,339.3z"/>
</g>
<g id="trazado_3_" class="st0">
	<g class="st5">
		<path d="M288.3,505.5c-1.4,0-2.8-0.5-3.9-1.6l-69.8-67.7c-1.3-1.8-2-3.1-1.8-4.9l25-272.1c0.3-3.1,2.8-5.4,5.9-5.4c0,0,0,0,0,0
			l86.9,0.3c2.5,0,4.6,1.9,4.8,4.4l28.3,272.8c0.2,1.9-0.5,3.7-1.8,5l-69.8,67.7C291.1,505,289.7,505.5,288.3,505.5z M243.7,159.7
			l-24.9,272.1l69.5,67.5l69.5-67.4L329.6,160L243.7,159.7z"/>
	</g>
	<g class="st5">
		<path d="M413.5,148.3h-250c-10.2,0-18.5-8.3-18.5-18.5v-6c0-10.2,8.3-18.5,18.5-18.5h250c10.2,0,18.5,8.3,18.5,18.5v6
			C432,140,423.7,148.3,413.5,148.3z M163.5,111.3c-6.9,0-12.5,5.6-12.5,12.5v6c0,6.9,5.6,12.5,12.5,12.5h250
			c6.9,0,12.5-5.6,12.5-12.5v-6c0-6.9-5.6-12.5-12.5-12.5H163.5z"/>
	</g>
	<g class="st5">
		<path d="M317.5,99.7h-61.5c-8.3,0-15.1-6.8-15.1-15.1V47.4c0-8.3,6.8-15.1,15.1-15.1h61.5c8.3,0,15.1,6.8,15.1,15.1v37.2
			C332.6,92.9,325.8,99.7,317.5,99.7z M255.9,38.5c-4.9,0-8.9,4-8.9,8.9v37.2c0,4.9,4,8.9,8.9,8.9h61.5c4.9,0,8.9-4,8.9-8.9V47.4
			c0-4.9-4-8.9-8.9-8.9H255.9z"/>
	</g>
	<g class="st5">
		<path class="st10" d="M287.2,187"/>
	</g>
	<g class="st5">
		<path d="M287.2,290c-1.1,0-2-0.9-2-2V181c0-1.1,0.9-2,2-2s2,0.9,2,2v107C289.2,289.1,288.3,290,287.2,290z"/>
	</g>
	<g class="st5">
		<path d="M287.2,326.3c-1.1,0-2-0.9-2-2v-19c0-1.1,0.9-2,2-2s2,0.9,2,2v19C289.2,325.4,288.3,326.3,287.2,326.3z"/>
	</g>
	<g class="st5">
		<path d="M287.2,435c-1.1,0-2-0.9-2-2v-91.7c0-1.1,0.9-2,2-2s2,0.9,2,2V433C289.2,434.1,288.3,435,287.2,435z"/>
	</g>
</g>
<g id="color_3_">
	<path class="st11" d="M300,237l-22.5-45c-0.6-1.1-1.6-1.3-2-1.3c0,0,0,0,0,0c-0.4,0-1.5,0.1-2,1.3l-22,45.3
		c-1.2,2.6-3.7,4.3-6.5,4.8l-49.8,7.5c-1.3,0.2-1.7,1.2-1.8,1.6c-0.1,0.4-0.3,1.4,0.6,2.3l36.2,34.9c2,2,3,4.8,2.5,7.6l-8.2,49.7
		c-0.2,1.3,0.6,2,0.9,2.2c0.3,0.2,1.3,0.8,2.4,0.2l44.4-23.7c2.5-1.3,5.5-1.4,8.1,0l44.7,23.2c1.1,0.6,2.1,0.1,2.4-0.2
		c0.3-0.3,1.1-1,0.9-2.2l-8.8-49.6c-0.5-2.8,0.4-5.7,2.4-7.7l35.9-35.3c0.9-0.9,0.7-1.9,0.6-2.3c-0.1-0.4-0.6-1.4-1.8-1.5l-49.9-7
		C303.7,241.3,301.3,239.6,300,237z"/>
	<path class="st12" d="M275.8,149.4c-63.8,0-115.6,53.9-115.6,120.1c0,66.2,51.9,120.1,115.6,120.1c63.8,0,115.6-53.9,115.6-120.1
		C391.4,203.3,339.6,149.4,275.8,149.4z M364.3,248.2c1,3.1,0.2,6.6-2.1,8.9l-35.9,35.3c-0.5,0.5-0.8,1.3-0.6,2l8.8,49.6
		c0.6,3.3-0.7,6.5-3.4,8.5c-2.7,2-6.2,2.2-9.1,0.7l-44.7-23.2c-0.7-0.3-1.5-0.3-2.1,0l-44.4,23.7c-1.3,0.7-2.7,1-4.1,1
		c-1.8,0-3.5-0.5-5-1.6c-2.7-1.9-4-5.2-3.5-8.4l8.2-49.7c0.1-0.7-0.1-1.5-0.7-2l-36.2-34.9c-2.4-2.3-3.2-5.7-2.2-8.9
		c1-3.2,3.7-5.4,6.9-5.9l49.8-7.5c0.7-0.1,1.4-0.6,1.7-1.3l22-45.3c1.5-3,4.4-4.8,7.7-4.9c0,0,0,0,0,0c3.3,0,6.3,1.8,7.7,4.8
		l22.5,45c0.3,0.7,1,1.1,1.7,1.2l49.9,7C360.6,242.9,363.3,245.1,364.3,248.2z"/>
	<path class="st11" d="M275.8,130.9c-77.7,0-141,62.2-141,138.7c0,76.5,63.3,138.7,141,138.7c77.7,0,141-62.2,141-138.7
		C416.8,193.1,353.5,130.9,275.8,130.9z M275.8,396.1c-67.3,0-122-56.8-122-126.5s54.7-126.5,122-126.5c67.3,0,122,56.8,122,126.5
		S343.1,396.1,275.8,396.1z"/>
	<path d="M275.8,124.9c-81.1,0-147,64.9-147,144.7c0,79.8,65.9,144.7,147,144.7c81.1,0,147-64.9,147-144.7
		C422.8,189.8,356.8,124.9,275.8,124.9z M275.8,408.2c-77.7,0-141-62.2-141-138.7c0-76.5,63.3-138.7,141-138.7
		c77.7,0,141,62.2,141,138.7C416.8,346,353.5,408.2,275.8,408.2z"/>
	<path d="M275.8,143.1c-67.3,0-122,56.8-122,126.5s54.7,126.5,122,126.5c67.3,0,122-56.8,122-126.5S343.1,143.1,275.8,143.1z
		 M275.8,389.7c-63.8,0-115.6-53.9-115.6-120.1c0-66.2,51.9-120.1,115.6-120.1c63.8,0,115.6,53.9,115.6,120.1
		C391.4,335.8,339.6,389.7,275.8,389.7z"/>
	<path d="M305.7,234.2l-22.5-45c-1.5-3-4.4-4.8-7.7-4.8c0,0,0,0,0,0c-3.3,0-6.3,1.9-7.7,4.9l-22,45.3c-0.3,0.7-1,1.1-1.7,1.3
		l-49.8,7.5c-3.3,0.5-5.9,2.8-6.9,5.9c-1,3.2-0.1,6.6,2.2,8.9l36.2,34.9c0.5,0.5,0.8,1.3,0.7,2l-8.2,49.7c-0.5,3.3,0.8,6.5,3.5,8.4
		c1.5,1.1,3.3,1.6,5,1.6c1.4,0,2.8-0.3,4.1-1l44.4-23.7c0.7-0.4,1.5-0.4,2.1,0l44.7,23.2c2.9,1.5,6.4,1.3,9.1-0.7
		c2.7-2,4-5.2,3.4-8.5l-8.8-49.6c-0.1-0.7,0.1-1.5,0.6-2l35.9-35.3c2.4-2.3,3.2-5.7,2.1-8.9c-1-3.1-3.7-5.4-7-5.8l-49.9-7
		C306.7,235.3,306.1,234.9,305.7,234.2z M358.3,250.2c0.1,0.4,0.3,1.4-0.6,2.3l-35.9,35.3c-2,2-2.9,4.9-2.4,7.7l8.8,49.6
		c0.2,1.3-0.6,2-0.9,2.2c-0.3,0.3-1.3,0.8-2.4,0.2l-44.7-23.2c-2.5-1.3-5.5-1.3-8.1,0l-44.4,23.7c-1.1,0.6-2.1,0.1-2.4-0.2
		c-0.3-0.2-1.1-1-0.9-2.2l8.2-49.7c0.5-2.8-0.5-5.7-2.5-7.6l-36.2-34.9c-0.9-0.9-0.7-1.9-0.6-2.3c0.1-0.4,0.6-1.4,1.8-1.6l49.8-7.5
		c2.8-0.4,5.2-2.2,6.5-4.8l22-45.3c0.6-1.1,1.6-1.3,2-1.3c0,0,0,0,0,0c0.4,0,1.5,0.1,2,1.3l22.5,45c1.3,2.5,3.7,4.3,6.5,4.7l49.9,7
		C357.7,248.9,358.1,249.8,358.3,250.2z"/>
</g>
<g id="Capa_11">
	<g>
		<path d="M275.8,124.9c-81.1,0-147,64.9-147,144.7c0,79.8,65.9,144.7,147,144.7c81.1,0,147-64.9,147-144.7
			C422.8,189.8,356.8,124.9,275.8,124.9z M275.8,408.2c-77.7,0-141-62.2-141-138.7c0-76.5,63.3-138.7,141-138.7
			c77.7,0,141,62.2,141,138.7C416.8,346,353.5,408.2,275.8,408.2z"/>
		<path d="M275.8,143.1c-67.3,0-122,56.8-122,126.5s54.7,126.5,122,126.5c67.3,0,122-56.8,122-126.5S343.1,143.1,275.8,143.1z
			 M275.8,389.7c-63.8,0-115.6-53.9-115.6-120.1c0-66.2,51.9-120.1,115.6-120.1c63.8,0,115.6,53.9,115.6,120.1
			C391.4,335.8,339.6,389.7,275.8,389.7z"/>
		<path d="M364.3,248.2c-1-3.1-3.7-5.4-7-5.8l-49.9-7c-0.7-0.1-1.4-0.6-1.7-1.2l-22.5-45c-1.5-3-4.4-4.8-7.7-4.8c0,0,0,0,0,0
			c-3.3,0-6.3,1.9-7.7,4.9l-22,45.3c-0.3,0.7-1,1.1-1.7,1.3l-49.8,7.5c-3.3,0.5-5.9,2.8-6.9,5.9c-1,3.2-0.1,6.6,2.2,8.9l36.2,34.9
			c0.5,0.5,0.8,1.3,0.7,2l-8.2,49.7c-0.5,3.3,0.8,6.5,3.5,8.4c1.5,1.1,3.3,1.6,5,1.6c1.4,0,2.8-0.3,4.1-1l44.4-23.7
			c0.7-0.4,1.5-0.4,2.1,0l44.7,23.2c2.9,1.5,6.4,1.3,9.1-0.7c2.7-2,4-5.2,3.4-8.5l-8.8-49.6c-0.1-0.7,0.1-1.5,0.6-2l35.9-35.3
			C364.5,254.8,365.4,251.4,364.3,248.2z M357.7,252.6l-35.9,35.3c-2,2-2.9,4.9-2.4,7.7l8.8,49.6c0.2,1.3-0.6,2-0.9,2.2
			c-0.3,0.3-1.3,0.8-2.4,0.2l-44.7-23.2c-2.5-1.3-5.5-1.3-8.1,0l-44.4,23.7c-1.1,0.6-2.1,0.1-2.4-0.2c-0.3-0.2-1.1-1-0.9-2.2
			l8.2-49.7c0.5-2.8-0.5-5.7-2.5-7.6l-36.2-34.9c-0.9-0.9-0.7-1.9-0.6-2.3c0.1-0.4,0.6-1.4,1.8-1.6l49.8-7.5
			c2.8-0.4,5.2-2.2,6.5-4.8l22-45.3c0.6-1.1,1.6-1.3,2-1.3c0,0,0,0,0,0c0.4,0,1.5,0.1,2,1.3l22.5,45c1.3,2.5,3.7,4.3,6.5,4.7l49.9,7
			c1.3,0.2,1.7,1.1,1.8,1.5C358.4,250.6,358.6,251.7,357.7,252.6z"/>
	</g>
</g>
</svg>
